<?xml version="1.0" encoding="iso-8859-1"?>
<!-- Generator: Adobe Illustrator 18.0.0, SVG Export Plug-In . SVG Version: 6.00 Build 0)  -->
<!DOCTYPE svg PUBLIC "-//W3C//DTD SVG 1.1//EN" "http://www.w3.org/Graphics/SVG/1.1/DTD/svg11.dtd">
<svg version="1.1" id="Capa_1" xmlns="http://www.w3.org/2000/svg" xmlns:xlink="http://www.w3.org/1999/xlink" x="0px" y="0px"
	 viewBox="0 0 187.879 187.879" style="enable-background:new 0 0 187.879 187.879;" xml:space="preserve">
<g>
	<path d="M93.946,50.173c13.833,0,25.087-11.254,25.087-25.087C119.033,11.254,107.779,0,93.946,0
		C80.114,0,68.86,11.254,68.86,25.086C68.86,38.919,80.114,50.173,93.946,50.173z M93.946,15c5.562,0,10.087,4.525,10.087,10.086
		c0,5.562-4.525,10.087-10.087,10.087S83.86,30.648,83.86,25.086C83.86,19.525,88.385,15,93.946,15z"/>
	<path d="M123.127,61.76c-3.018-3.421-7.363-5.384-11.925-5.384H76.677c-4.558,0-8.9,1.959-11.917,5.375
		c-3.017,3.416-4.423,7.969-3.859,12.491l13.35,107.065c0.468,3.754,3.659,6.572,7.442,6.572h24.348
		c3.779,0,6.969-2.812,7.441-6.562l13.494-107.053C127.546,69.739,126.144,65.181,123.127,61.76z M99.426,172.879h-11.11
		L75.785,72.386c-0.033-0.267,0.04-0.504,0.218-0.706c0.179-0.202,0.405-0.304,0.674-0.304h34.525c0.269,0,0.495,0.103,0.674,0.304
		c0.178,0.202,0.251,0.439,0.217,0.707L99.426,172.879z"/>
</g>
<g>
</g>
<g>
</g>
<g>
</g>
<g>
</g>
<g>
</g>
<g>
</g>
<g>
</g>
<g>
</g>
<g>
</g>
<g>
</g>
<g>
</g>
<g>
</g>
<g>
</g>
<g>
</g>
<g>
</g>
</svg>
